<mxfile host="app.diagrams.net" agent="Mozilla/5.0 (Macintosh; Intel Mac OS X 10_15_7) AppleWebKit/605.1.15 (KHTML, like Gecko) Version/18.3 Safari/605.1.15" version="26.0.16">
  <diagram id="C5RBs43oDa-KdzZeNtuy" name="Page-1">
    <mxGraphModel dx="2007" dy="2647" grid="1" gridSize="10" guides="1" tooltips="1" connect="1" arrows="1" fold="1" page="1" pageScale="1" pageWidth="827" pageHeight="1169" math="0" shadow="0">
      <root>
        <mxCell id="WIyWlLk6GJQsqaUBKTNV-0" />
        <mxCell id="WIyWlLk6GJQsqaUBKTNV-1" parent="WIyWlLk6GJQsqaUBKTNV-0" />
        <mxCell id="treNw8Xe52a4ep_lziaN-0" value="Owner" style="swimlane;fontStyle=1;align=center;verticalAlign=top;childLayout=stackLayout;horizontal=1;startSize=26;horizontalStack=0;resizeParent=1;resizeParentMax=0;resizeLast=0;collapsible=1;marginBottom=0;whiteSpace=wrap;html=1;" parent="WIyWlLk6GJQsqaUBKTNV-1" vertex="1">
          <mxGeometry x="80" y="-660" width="280" height="510" as="geometry" />
        </mxCell>
        <mxCell id="treNw8Xe52a4ep_lziaN-6" value="- address: String&amp;nbsp;" style="text;strokeColor=none;fillColor=none;align=left;verticalAlign=top;spacingLeft=4;spacingRight=4;overflow=hidden;rotatable=0;points=[[0,0.5],[1,0.5]];portConstraint=eastwest;whiteSpace=wrap;html=1;" parent="treNw8Xe52a4ep_lziaN-0" vertex="1">
          <mxGeometry y="26" width="280" height="26" as="geometry" />
        </mxCell>
        <mxCell id="treNw8Xe52a4ep_lziaN-7" value="- city: String" style="text;strokeColor=none;fillColor=none;align=left;verticalAlign=top;spacingLeft=4;spacingRight=4;overflow=hidden;rotatable=0;points=[[0,0.5],[1,0.5]];portConstraint=eastwest;whiteSpace=wrap;html=1;" parent="treNw8Xe52a4ep_lziaN-0" vertex="1">
          <mxGeometry y="52" width="280" height="26" as="geometry" />
        </mxCell>
        <mxCell id="treNw8Xe52a4ep_lziaN-8" value="- telephone: String&amp;nbsp;" style="text;strokeColor=none;fillColor=none;align=left;verticalAlign=top;spacingLeft=4;spacingRight=4;overflow=hidden;rotatable=0;points=[[0,0.5],[1,0.5]];portConstraint=eastwest;whiteSpace=wrap;html=1;" parent="treNw8Xe52a4ep_lziaN-0" vertex="1">
          <mxGeometry y="78" width="280" height="26" as="geometry" />
        </mxCell>
        <mxCell id="treNw8Xe52a4ep_lziaN-1" value="- pets: Set" style="text;strokeColor=none;fillColor=none;align=left;verticalAlign=top;spacingLeft=4;spacingRight=4;overflow=hidden;rotatable=0;points=[[0,0.5],[1,0.5]];portConstraint=eastwest;whiteSpace=wrap;html=1;" parent="treNw8Xe52a4ep_lziaN-0" vertex="1">
          <mxGeometry y="104" width="280" height="26" as="geometry" />
        </mxCell>
        <mxCell id="treNw8Xe52a4ep_lziaN-2" value="" style="line;strokeWidth=1;fillColor=none;align=left;verticalAlign=middle;spacingTop=-1;spacingLeft=3;spacingRight=3;rotatable=0;labelPosition=right;points=[];portConstraint=eastwest;strokeColor=inherit;" parent="treNw8Xe52a4ep_lziaN-0" vertex="1">
          <mxGeometry y="130" width="280" height="8" as="geometry" />
        </mxCell>
        <mxCell id="treNw8Xe52a4ep_lziaN-9" value="+ getAdress(): String" style="text;strokeColor=none;fillColor=none;align=left;verticalAlign=top;spacingLeft=4;spacingRight=4;overflow=hidden;rotatable=0;points=[[0,0.5],[1,0.5]];portConstraint=eastwest;whiteSpace=wrap;html=1;" parent="treNw8Xe52a4ep_lziaN-0" vertex="1">
          <mxGeometry y="138" width="280" height="26" as="geometry" />
        </mxCell>
        <mxCell id="treNw8Xe52a4ep_lziaN-10" value="+ setAddress(String address): void" style="text;strokeColor=none;fillColor=none;align=left;verticalAlign=top;spacingLeft=4;spacingRight=4;overflow=hidden;rotatable=0;points=[[0,0.5],[1,0.5]];portConstraint=eastwest;whiteSpace=wrap;html=1;" parent="treNw8Xe52a4ep_lziaN-0" vertex="1">
          <mxGeometry y="164" width="280" height="26" as="geometry" />
        </mxCell>
        <mxCell id="treNw8Xe52a4ep_lziaN-11" value="+ getCity(): String" style="text;strokeColor=none;fillColor=none;align=left;verticalAlign=top;spacingLeft=4;spacingRight=4;overflow=hidden;rotatable=0;points=[[0,0.5],[1,0.5]];portConstraint=eastwest;whiteSpace=wrap;html=1;" parent="treNw8Xe52a4ep_lziaN-0" vertex="1">
          <mxGeometry y="190" width="280" height="26" as="geometry" />
        </mxCell>
        <mxCell id="treNw8Xe52a4ep_lziaN-12" value="+ setCity(String city): void" style="text;strokeColor=none;fillColor=none;align=left;verticalAlign=top;spacingLeft=4;spacingRight=4;overflow=hidden;rotatable=0;points=[[0,0.5],[1,0.5]];portConstraint=eastwest;whiteSpace=wrap;html=1;" parent="treNw8Xe52a4ep_lziaN-0" vertex="1">
          <mxGeometry y="216" width="280" height="26" as="geometry" />
        </mxCell>
        <mxCell id="treNw8Xe52a4ep_lziaN-13" value="+ getTelephone(): String" style="text;strokeColor=none;fillColor=none;align=left;verticalAlign=top;spacingLeft=4;spacingRight=4;overflow=hidden;rotatable=0;points=[[0,0.5],[1,0.5]];portConstraint=eastwest;whiteSpace=wrap;html=1;" parent="treNw8Xe52a4ep_lziaN-0" vertex="1">
          <mxGeometry y="242" width="280" height="26" as="geometry" />
        </mxCell>
        <mxCell id="treNw8Xe52a4ep_lziaN-14" value="+ setTelephone(): void" style="text;strokeColor=none;fillColor=none;align=left;verticalAlign=top;spacingLeft=4;spacingRight=4;overflow=hidden;rotatable=0;points=[[0,0.5],[1,0.5]];portConstraint=eastwest;whiteSpace=wrap;html=1;" parent="treNw8Xe52a4ep_lziaN-0" vertex="1">
          <mxGeometry y="268" width="280" height="26" as="geometry" />
        </mxCell>
        <mxCell id="treNw8Xe52a4ep_lziaN-15" value="+ setPets: (List&amp;lt;Pet&amp;gt; pets)" style="text;strokeColor=none;fillColor=none;align=left;verticalAlign=top;spacingLeft=4;spacingRight=4;overflow=hidden;rotatable=0;points=[[0,0.5],[1,0.5]];portConstraint=eastwest;whiteSpace=wrap;html=1;" parent="treNw8Xe52a4ep_lziaN-0" vertex="1">
          <mxGeometry y="294" width="280" height="26" as="geometry" />
        </mxCell>
        <mxCell id="treNw8Xe52a4ep_lziaN-16" value="# setPetsInternal(Set&amp;lt;Pet&amp;gt; pets): void&amp;nbsp;" style="text;strokeColor=none;fillColor=none;align=left;verticalAlign=top;spacingLeft=4;spacingRight=4;overflow=hidden;rotatable=0;points=[[0,0.5],[1,0.5]];portConstraint=eastwest;whiteSpace=wrap;html=1;" parent="treNw8Xe52a4ep_lziaN-0" vertex="1">
          <mxGeometry y="320" width="280" height="26" as="geometry" />
        </mxCell>
        <mxCell id="treNw8Xe52a4ep_lziaN-17" value="# getPetsInternal(): Set&amp;lt;Pet&amp;gt;&amp;nbsp;" style="text;strokeColor=none;fillColor=none;align=left;verticalAlign=top;spacingLeft=4;spacingRight=4;overflow=hidden;rotatable=0;points=[[0,0.5],[1,0.5]];portConstraint=eastwest;whiteSpace=wrap;html=1;" parent="treNw8Xe52a4ep_lziaN-0" vertex="1">
          <mxGeometry y="346" width="280" height="26" as="geometry" />
        </mxCell>
        <mxCell id="treNw8Xe52a4ep_lziaN-18" value="+ getPets(): List&amp;lt;Pet&amp;gt;" style="text;strokeColor=none;fillColor=none;align=left;verticalAlign=top;spacingLeft=4;spacingRight=4;overflow=hidden;rotatable=0;points=[[0,0.5],[1,0.5]];portConstraint=eastwest;whiteSpace=wrap;html=1;" parent="treNw8Xe52a4ep_lziaN-0" vertex="1">
          <mxGeometry y="372" width="280" height="26" as="geometry" />
        </mxCell>
        <mxCell id="treNw8Xe52a4ep_lziaN-19" value="+ addPet(Pet pet): void" style="text;strokeColor=none;fillColor=none;align=left;verticalAlign=top;spacingLeft=4;spacingRight=4;overflow=hidden;rotatable=0;points=[[0,0.5],[1,0.5]];portConstraint=eastwest;whiteSpace=wrap;html=1;" parent="treNw8Xe52a4ep_lziaN-0" vertex="1">
          <mxGeometry y="398" width="280" height="26" as="geometry" />
        </mxCell>
        <mxCell id="treNw8Xe52a4ep_lziaN-20" value="+ getPet(String name): Pet" style="text;strokeColor=none;fillColor=none;align=left;verticalAlign=top;spacingLeft=4;spacingRight=4;overflow=hidden;rotatable=0;points=[[0,0.5],[1,0.5]];portConstraint=eastwest;whiteSpace=wrap;html=1;" parent="treNw8Xe52a4ep_lziaN-0" vertex="1">
          <mxGeometry y="424" width="280" height="26" as="geometry" />
        </mxCell>
        <mxCell id="treNw8Xe52a4ep_lziaN-21" value="+ getPet(String name, boolean ignoreNew): Pet" style="text;strokeColor=none;fillColor=none;align=left;verticalAlign=top;spacingLeft=4;spacingRight=4;overflow=hidden;rotatable=0;points=[[0,0.5],[1,0.5]];portConstraint=eastwest;whiteSpace=wrap;html=1;" parent="treNw8Xe52a4ep_lziaN-0" vertex="1">
          <mxGeometry y="450" width="280" height="26" as="geometry" />
        </mxCell>
        <mxCell id="treNw8Xe52a4ep_lziaN-22" value="+ toString(): String" style="text;strokeColor=none;fillColor=none;align=left;verticalAlign=top;spacingLeft=4;spacingRight=4;overflow=hidden;rotatable=0;points=[[0,0.5],[1,0.5]];portConstraint=eastwest;whiteSpace=wrap;html=1;" parent="treNw8Xe52a4ep_lziaN-0" vertex="1">
          <mxGeometry y="476" width="280" height="34" as="geometry" />
        </mxCell>
        <mxCell id="treNw8Xe52a4ep_lziaN-24" value="Person" style="swimlane;fontStyle=1;align=center;verticalAlign=top;childLayout=stackLayout;horizontal=1;startSize=26;horizontalStack=0;resizeParent=1;resizeParentMax=0;resizeLast=0;collapsible=1;marginBottom=0;whiteSpace=wrap;html=1;" parent="WIyWlLk6GJQsqaUBKTNV-1" vertex="1">
          <mxGeometry x="100" y="-1160" width="240" height="200" as="geometry" />
        </mxCell>
        <mxCell id="treNw8Xe52a4ep_lziaN-29" value="- firstName: String" style="text;strokeColor=none;fillColor=none;align=left;verticalAlign=top;spacingLeft=4;spacingRight=4;overflow=hidden;rotatable=0;points=[[0,0.5],[1,0.5]];portConstraint=eastwest;whiteSpace=wrap;html=1;" parent="treNw8Xe52a4ep_lziaN-24" vertex="1">
          <mxGeometry y="26" width="240" height="26" as="geometry" />
        </mxCell>
        <mxCell id="treNw8Xe52a4ep_lziaN-25" value="- lastName: String" style="text;strokeColor=none;fillColor=none;align=left;verticalAlign=top;spacingLeft=4;spacingRight=4;overflow=hidden;rotatable=0;points=[[0,0.5],[1,0.5]];portConstraint=eastwest;whiteSpace=wrap;html=1;" parent="treNw8Xe52a4ep_lziaN-24" vertex="1">
          <mxGeometry y="52" width="240" height="28" as="geometry" />
        </mxCell>
        <mxCell id="treNw8Xe52a4ep_lziaN-26" value="" style="line;strokeWidth=1;fillColor=none;align=left;verticalAlign=middle;spacingTop=-1;spacingLeft=3;spacingRight=3;rotatable=0;labelPosition=right;points=[];portConstraint=eastwest;strokeColor=inherit;" parent="treNw8Xe52a4ep_lziaN-24" vertex="1">
          <mxGeometry y="80" width="240" height="8" as="geometry" />
        </mxCell>
        <mxCell id="treNw8Xe52a4ep_lziaN-30" value="+ getFirstName(): String" style="text;strokeColor=none;fillColor=none;align=left;verticalAlign=top;spacingLeft=4;spacingRight=4;overflow=hidden;rotatable=0;points=[[0,0.5],[1,0.5]];portConstraint=eastwest;whiteSpace=wrap;html=1;" parent="treNw8Xe52a4ep_lziaN-24" vertex="1">
          <mxGeometry y="88" width="240" height="26" as="geometry" />
        </mxCell>
        <mxCell id="treNw8Xe52a4ep_lziaN-31" value="+ setFirstName(String firstName):&amp;nbsp;" style="text;strokeColor=none;fillColor=none;align=left;verticalAlign=top;spacingLeft=4;spacingRight=4;overflow=hidden;rotatable=0;points=[[0,0.5],[1,0.5]];portConstraint=eastwest;whiteSpace=wrap;html=1;" parent="treNw8Xe52a4ep_lziaN-24" vertex="1">
          <mxGeometry y="114" width="240" height="26" as="geometry" />
        </mxCell>
        <mxCell id="treNw8Xe52a4ep_lziaN-32" value="+ getLastName: String" style="text;strokeColor=none;fillColor=none;align=left;verticalAlign=top;spacingLeft=4;spacingRight=4;overflow=hidden;rotatable=0;points=[[0,0.5],[1,0.5]];portConstraint=eastwest;whiteSpace=wrap;html=1;" parent="treNw8Xe52a4ep_lziaN-24" vertex="1">
          <mxGeometry y="140" width="240" height="26" as="geometry" />
        </mxCell>
        <mxCell id="treNw8Xe52a4ep_lziaN-27" value="+ setLastName(String lastName): void&amp;nbsp;" style="text;strokeColor=none;fillColor=none;align=left;verticalAlign=top;spacingLeft=4;spacingRight=4;overflow=hidden;rotatable=0;points=[[0,0.5],[1,0.5]];portConstraint=eastwest;whiteSpace=wrap;html=1;" parent="treNw8Xe52a4ep_lziaN-24" vertex="1">
          <mxGeometry y="166" width="240" height="34" as="geometry" />
        </mxCell>
        <mxCell id="treNw8Xe52a4ep_lziaN-33" value="Extends" style="endArrow=block;endSize=16;endFill=0;html=1;rounded=0;entryX=0.5;entryY=1.006;entryDx=0;entryDy=0;entryPerimeter=0;exitX=0.5;exitY=0;exitDx=0;exitDy=0;" parent="WIyWlLk6GJQsqaUBKTNV-1" source="treNw8Xe52a4ep_lziaN-0" target="treNw8Xe52a4ep_lziaN-27" edge="1">
          <mxGeometry width="160" relative="1" as="geometry">
            <mxPoint x="220" y="-840" as="sourcePoint" />
            <mxPoint x="219.5" y="-930" as="targetPoint" />
          </mxGeometry>
        </mxCell>
        <mxCell id="treNw8Xe52a4ep_lziaN-34" value="Pet" style="swimlane;fontStyle=1;align=center;verticalAlign=top;childLayout=stackLayout;horizontal=1;startSize=26;horizontalStack=0;resizeParent=1;resizeParentMax=0;resizeLast=0;collapsible=1;marginBottom=0;whiteSpace=wrap;html=1;" parent="WIyWlLk6GJQsqaUBKTNV-1" vertex="1">
          <mxGeometry x="710" y="-560" width="240" height="410" as="geometry" />
        </mxCell>
        <mxCell id="treNw8Xe52a4ep_lziaN-35" value="- birthDate: Date" style="text;strokeColor=none;fillColor=none;align=left;verticalAlign=top;spacingLeft=4;spacingRight=4;overflow=hidden;rotatable=0;points=[[0,0.5],[1,0.5]];portConstraint=eastwest;whiteSpace=wrap;html=1;" parent="treNw8Xe52a4ep_lziaN-34" vertex="1">
          <mxGeometry y="26" width="240" height="26" as="geometry" />
        </mxCell>
        <mxCell id="treNw8Xe52a4ep_lziaN-43" value="- type: PetType" style="text;strokeColor=none;fillColor=none;align=left;verticalAlign=top;spacingLeft=4;spacingRight=4;overflow=hidden;rotatable=0;points=[[0,0.5],[1,0.5]];portConstraint=eastwest;whiteSpace=wrap;html=1;" parent="treNw8Xe52a4ep_lziaN-34" vertex="1">
          <mxGeometry y="52" width="240" height="26" as="geometry" />
        </mxCell>
        <mxCell id="treNw8Xe52a4ep_lziaN-44" value="- Owner: owner" style="text;strokeColor=none;fillColor=none;align=left;verticalAlign=top;spacingLeft=4;spacingRight=4;overflow=hidden;rotatable=0;points=[[0,0.5],[1,0.5]];portConstraint=eastwest;whiteSpace=wrap;html=1;" parent="treNw8Xe52a4ep_lziaN-34" vertex="1">
          <mxGeometry y="78" width="240" height="26" as="geometry" />
        </mxCell>
        <mxCell id="treNw8Xe52a4ep_lziaN-36" value="- visits: Set&amp;lt;Visit&amp;gt;" style="text;strokeColor=none;fillColor=none;align=left;verticalAlign=top;spacingLeft=4;spacingRight=4;overflow=hidden;rotatable=0;points=[[0,0.5],[1,0.5]];portConstraint=eastwest;whiteSpace=wrap;html=1;" parent="treNw8Xe52a4ep_lziaN-34" vertex="1">
          <mxGeometry y="104" width="240" height="26" as="geometry" />
        </mxCell>
        <mxCell id="treNw8Xe52a4ep_lziaN-37" value="" style="line;strokeWidth=1;fillColor=none;align=left;verticalAlign=middle;spacingTop=-1;spacingLeft=3;spacingRight=3;rotatable=0;labelPosition=right;points=[];portConstraint=eastwest;strokeColor=inherit;" parent="treNw8Xe52a4ep_lziaN-34" vertex="1">
          <mxGeometry y="130" width="240" height="8" as="geometry" />
        </mxCell>
        <mxCell id="treNw8Xe52a4ep_lziaN-38" value="+ getBirthDate(Date birthDate): void" style="text;strokeColor=none;fillColor=none;align=left;verticalAlign=top;spacingLeft=4;spacingRight=4;overflow=hidden;rotatable=0;points=[[0,0.5],[1,0.5]];portConstraint=eastwest;whiteSpace=wrap;html=1;" parent="treNw8Xe52a4ep_lziaN-34" vertex="1">
          <mxGeometry y="138" width="240" height="26" as="geometry" />
        </mxCell>
        <mxCell id="treNw8Xe52a4ep_lziaN-39" value="+ getBirthDate(): Date&amp;nbsp;" style="text;strokeColor=none;fillColor=none;align=left;verticalAlign=top;spacingLeft=4;spacingRight=4;overflow=hidden;rotatable=0;points=[[0,0.5],[1,0.5]];portConstraint=eastwest;whiteSpace=wrap;html=1;" parent="treNw8Xe52a4ep_lziaN-34" vertex="1">
          <mxGeometry y="164" width="240" height="26" as="geometry" />
        </mxCell>
        <mxCell id="treNw8Xe52a4ep_lziaN-40" value="+ setType(PetType type): void" style="text;strokeColor=none;fillColor=none;align=left;verticalAlign=top;spacingLeft=4;spacingRight=4;overflow=hidden;rotatable=0;points=[[0,0.5],[1,0.5]];portConstraint=eastwest;whiteSpace=wrap;html=1;" parent="treNw8Xe52a4ep_lziaN-34" vertex="1">
          <mxGeometry y="190" width="240" height="26" as="geometry" />
        </mxCell>
        <mxCell id="treNw8Xe52a4ep_lziaN-46" value="+ getType(): PetType" style="text;strokeColor=none;fillColor=none;align=left;verticalAlign=top;spacingLeft=4;spacingRight=4;overflow=hidden;rotatable=0;points=[[0,0.5],[1,0.5]];portConstraint=eastwest;whiteSpace=wrap;html=1;" parent="treNw8Xe52a4ep_lziaN-34" vertex="1">
          <mxGeometry y="216" width="240" height="26" as="geometry" />
        </mxCell>
        <mxCell id="treNw8Xe52a4ep_lziaN-47" value="+ setOwner(Owner owner): void" style="text;strokeColor=none;fillColor=none;align=left;verticalAlign=top;spacingLeft=4;spacingRight=4;overflow=hidden;rotatable=0;points=[[0,0.5],[1,0.5]];portConstraint=eastwest;whiteSpace=wrap;html=1;" parent="treNw8Xe52a4ep_lziaN-34" vertex="1">
          <mxGeometry y="242" width="240" height="26" as="geometry" />
        </mxCell>
        <mxCell id="treNw8Xe52a4ep_lziaN-48" value="+ getOwner(): Owner" style="text;strokeColor=none;fillColor=none;align=left;verticalAlign=top;spacingLeft=4;spacingRight=4;overflow=hidden;rotatable=0;points=[[0,0.5],[1,0.5]];portConstraint=eastwest;whiteSpace=wrap;html=1;" parent="treNw8Xe52a4ep_lziaN-34" vertex="1">
          <mxGeometry y="268" width="240" height="26" as="geometry" />
        </mxCell>
        <mxCell id="treNw8Xe52a4ep_lziaN-49" value="# setVisitsInternal(Set&amp;lt;Visit&amp;gt; visits): void&amp;nbsp;" style="text;strokeColor=none;fillColor=none;align=left;verticalAlign=top;spacingLeft=4;spacingRight=4;overflow=hidden;rotatable=0;points=[[0,0.5],[1,0.5]];portConstraint=eastwest;whiteSpace=wrap;html=1;" parent="treNw8Xe52a4ep_lziaN-34" vertex="1">
          <mxGeometry y="294" width="240" height="26" as="geometry" />
        </mxCell>
        <mxCell id="treNw8Xe52a4ep_lziaN-50" value="# getVisitsInternal(): Set&amp;lt;Visit&amp;gt;&amp;nbsp;" style="text;strokeColor=none;fillColor=none;align=left;verticalAlign=top;spacingLeft=4;spacingRight=4;overflow=hidden;rotatable=0;points=[[0,0.5],[1,0.5]];portConstraint=eastwest;whiteSpace=wrap;html=1;" parent="treNw8Xe52a4ep_lziaN-34" vertex="1">
          <mxGeometry y="320" width="240" height="26" as="geometry" />
        </mxCell>
        <mxCell id="treNw8Xe52a4ep_lziaN-51" value="+ getVisits(): List&amp;lt;Visit&amp;gt;" style="text;strokeColor=none;fillColor=none;align=left;verticalAlign=top;spacingLeft=4;spacingRight=4;overflow=hidden;rotatable=0;points=[[0,0.5],[1,0.5]];portConstraint=eastwest;whiteSpace=wrap;html=1;" parent="treNw8Xe52a4ep_lziaN-34" vertex="1">
          <mxGeometry y="346" width="240" height="26" as="geometry" />
        </mxCell>
        <mxCell id="treNw8Xe52a4ep_lziaN-41" value="+ addVisit(Visit visit): void" style="text;strokeColor=none;fillColor=none;align=left;verticalAlign=top;spacingLeft=4;spacingRight=4;overflow=hidden;rotatable=0;points=[[0,0.5],[1,0.5]];portConstraint=eastwest;whiteSpace=wrap;html=1;" parent="treNw8Xe52a4ep_lziaN-34" vertex="1">
          <mxGeometry y="372" width="240" height="38" as="geometry" />
        </mxCell>
        <mxCell id="treNw8Xe52a4ep_lziaN-52" value="Extends" style="endArrow=block;endSize=16;endFill=0;html=1;rounded=0;" parent="WIyWlLk6GJQsqaUBKTNV-1" edge="1">
          <mxGeometry width="160" relative="1" as="geometry">
            <mxPoint x="620" y="-600" as="sourcePoint" />
            <mxPoint x="620.1999999999999" y="-672" as="targetPoint" />
          </mxGeometry>
        </mxCell>
        <mxCell id="pr3F95v6sbht4BR1zz6e-0" value="NamedEntity" style="swimlane;fontStyle=1;align=center;verticalAlign=top;childLayout=stackLayout;horizontal=1;startSize=26;horizontalStack=0;resizeParent=1;resizeParentMax=0;resizeLast=0;collapsible=1;marginBottom=0;whiteSpace=wrap;html=1;" vertex="1" parent="WIyWlLk6GJQsqaUBKTNV-1">
          <mxGeometry x="587" y="-810" width="240" height="138" as="geometry" />
        </mxCell>
        <mxCell id="pr3F95v6sbht4BR1zz6e-1" value="- name: String" style="text;strokeColor=none;fillColor=none;align=left;verticalAlign=top;spacingLeft=4;spacingRight=4;overflow=hidden;rotatable=0;points=[[0,0.5],[1,0.5]];portConstraint=eastwest;whiteSpace=wrap;html=1;" vertex="1" parent="pr3F95v6sbht4BR1zz6e-0">
          <mxGeometry y="26" width="240" height="26" as="geometry" />
        </mxCell>
        <mxCell id="pr3F95v6sbht4BR1zz6e-3" value="" style="line;strokeWidth=1;fillColor=none;align=left;verticalAlign=middle;spacingTop=-1;spacingLeft=3;spacingRight=3;rotatable=0;labelPosition=right;points=[];portConstraint=eastwest;strokeColor=inherit;" vertex="1" parent="pr3F95v6sbht4BR1zz6e-0">
          <mxGeometry y="52" width="240" height="8" as="geometry" />
        </mxCell>
        <mxCell id="pr3F95v6sbht4BR1zz6e-4" value="+ setName(String name): void" style="text;strokeColor=none;fillColor=none;align=left;verticalAlign=top;spacingLeft=4;spacingRight=4;overflow=hidden;rotatable=0;points=[[0,0.5],[1,0.5]];portConstraint=eastwest;whiteSpace=wrap;html=1;" vertex="1" parent="pr3F95v6sbht4BR1zz6e-0">
          <mxGeometry y="60" width="240" height="26" as="geometry" />
        </mxCell>
        <mxCell id="pr3F95v6sbht4BR1zz6e-5" value="+ getName(): String&amp;nbsp;" style="text;strokeColor=none;fillColor=none;align=left;verticalAlign=top;spacingLeft=4;spacingRight=4;overflow=hidden;rotatable=0;points=[[0,0.5],[1,0.5]];portConstraint=eastwest;whiteSpace=wrap;html=1;" vertex="1" parent="pr3F95v6sbht4BR1zz6e-0">
          <mxGeometry y="86" width="240" height="26" as="geometry" />
        </mxCell>
        <mxCell id="pr3F95v6sbht4BR1zz6e-6" value="+ toString(): String" style="text;strokeColor=none;fillColor=none;align=left;verticalAlign=top;spacingLeft=4;spacingRight=4;overflow=hidden;rotatable=0;points=[[0,0.5],[1,0.5]];portConstraint=eastwest;whiteSpace=wrap;html=1;" vertex="1" parent="pr3F95v6sbht4BR1zz6e-0">
          <mxGeometry y="112" width="240" height="26" as="geometry" />
        </mxCell>
        <mxCell id="pr3F95v6sbht4BR1zz6e-9" value="BaseEntity" style="swimlane;fontStyle=1;align=center;verticalAlign=top;childLayout=stackLayout;horizontal=1;startSize=26;horizontalStack=0;resizeParent=1;resizeParentMax=0;resizeLast=0;collapsible=1;marginBottom=0;whiteSpace=wrap;html=1;" vertex="1" parent="WIyWlLk6GJQsqaUBKTNV-1">
          <mxGeometry x="500" y="-1098" width="240" height="138" as="geometry" />
        </mxCell>
        <mxCell id="pr3F95v6sbht4BR1zz6e-10" value="- id: Integer" style="text;strokeColor=none;fillColor=none;align=left;verticalAlign=top;spacingLeft=4;spacingRight=4;overflow=hidden;rotatable=0;points=[[0,0.5],[1,0.5]];portConstraint=eastwest;whiteSpace=wrap;html=1;" vertex="1" parent="pr3F95v6sbht4BR1zz6e-9">
          <mxGeometry y="26" width="240" height="26" as="geometry" />
        </mxCell>
        <mxCell id="pr3F95v6sbht4BR1zz6e-11" value="" style="line;strokeWidth=1;fillColor=none;align=left;verticalAlign=middle;spacingTop=-1;spacingLeft=3;spacingRight=3;rotatable=0;labelPosition=right;points=[];portConstraint=eastwest;strokeColor=inherit;" vertex="1" parent="pr3F95v6sbht4BR1zz6e-9">
          <mxGeometry y="52" width="240" height="8" as="geometry" />
        </mxCell>
        <mxCell id="pr3F95v6sbht4BR1zz6e-12" value="+ setId(Integer id): void" style="text;strokeColor=none;fillColor=none;align=left;verticalAlign=top;spacingLeft=4;spacingRight=4;overflow=hidden;rotatable=0;points=[[0,0.5],[1,0.5]];portConstraint=eastwest;whiteSpace=wrap;html=1;" vertex="1" parent="pr3F95v6sbht4BR1zz6e-9">
          <mxGeometry y="60" width="240" height="26" as="geometry" />
        </mxCell>
        <mxCell id="pr3F95v6sbht4BR1zz6e-13" value="+ getId(): Integer &amp;nbsp;" style="text;strokeColor=none;fillColor=none;align=left;verticalAlign=top;spacingLeft=4;spacingRight=4;overflow=hidden;rotatable=0;points=[[0,0.5],[1,0.5]];portConstraint=eastwest;whiteSpace=wrap;html=1;" vertex="1" parent="pr3F95v6sbht4BR1zz6e-9">
          <mxGeometry y="86" width="240" height="26" as="geometry" />
        </mxCell>
        <mxCell id="pr3F95v6sbht4BR1zz6e-14" value="+ isNew(): boolean" style="text;strokeColor=none;fillColor=none;align=left;verticalAlign=top;spacingLeft=4;spacingRight=4;overflow=hidden;rotatable=0;points=[[0,0.5],[1,0.5]];portConstraint=eastwest;whiteSpace=wrap;html=1;" vertex="1" parent="pr3F95v6sbht4BR1zz6e-9">
          <mxGeometry y="112" width="240" height="26" as="geometry" />
        </mxCell>
        <mxCell id="pr3F95v6sbht4BR1zz6e-15" value="Extends" style="endArrow=block;endSize=16;endFill=0;html=1;rounded=0;" edge="1" parent="WIyWlLk6GJQsqaUBKTNV-1" target="pr3F95v6sbht4BR1zz6e-14">
          <mxGeometry width="160" relative="1" as="geometry">
            <mxPoint x="619.29" y="-810" as="sourcePoint" />
            <mxPoint x="619.29" y="-890" as="targetPoint" />
          </mxGeometry>
        </mxCell>
        <mxCell id="pr3F95v6sbht4BR1zz6e-16" value="PetType" style="swimlane;fontStyle=1;align=center;verticalAlign=top;childLayout=stackLayout;horizontal=1;startSize=26;horizontalStack=0;resizeParent=1;resizeParentMax=0;resizeLast=0;collapsible=1;marginBottom=0;whiteSpace=wrap;html=1;" vertex="1" parent="WIyWlLk6GJQsqaUBKTNV-1">
          <mxGeometry x="440" y="-520" width="170" height="80" as="geometry" />
        </mxCell>
        <mxCell id="pr3F95v6sbht4BR1zz6e-18" value="" style="line;strokeWidth=1;fillColor=none;align=left;verticalAlign=middle;spacingTop=-1;spacingLeft=3;spacingRight=3;rotatable=0;labelPosition=right;points=[];portConstraint=eastwest;strokeColor=inherit;" vertex="1" parent="pr3F95v6sbht4BR1zz6e-16">
          <mxGeometry y="26" width="170" height="54" as="geometry" />
        </mxCell>
        <mxCell id="pr3F95v6sbht4BR1zz6e-31" value="Speciality" style="swimlane;fontStyle=1;align=center;verticalAlign=top;childLayout=stackLayout;horizontal=1;startSize=26;horizontalStack=0;resizeParent=1;resizeParentMax=0;resizeLast=0;collapsible=1;marginBottom=0;whiteSpace=wrap;html=1;" vertex="1" parent="WIyWlLk6GJQsqaUBKTNV-1">
          <mxGeometry x="440" y="-395" width="170" height="80" as="geometry" />
        </mxCell>
        <mxCell id="pr3F95v6sbht4BR1zz6e-32" value="" style="line;strokeWidth=1;fillColor=none;align=left;verticalAlign=middle;spacingTop=-1;spacingLeft=3;spacingRight=3;rotatable=0;labelPosition=right;points=[];portConstraint=eastwest;strokeColor=inherit;" vertex="1" parent="pr3F95v6sbht4BR1zz6e-31">
          <mxGeometry y="26" width="170" height="54" as="geometry" />
        </mxCell>
        <mxCell id="pr3F95v6sbht4BR1zz6e-39" value="Vet" style="swimlane;fontStyle=1;align=center;verticalAlign=top;childLayout=stackLayout;horizontal=1;startSize=26;horizontalStack=0;resizeParent=1;resizeParentMax=0;resizeLast=0;collapsible=1;marginBottom=0;whiteSpace=wrap;html=1;" vertex="1" parent="WIyWlLk6GJQsqaUBKTNV-1">
          <mxGeometry x="-390" y="-839" width="330" height="186" as="geometry" />
        </mxCell>
        <mxCell id="pr3F95v6sbht4BR1zz6e-40" value="- specialities: Set&amp;lt;Specialty&amp;gt;" style="text;strokeColor=none;fillColor=none;align=left;verticalAlign=top;spacingLeft=4;spacingRight=4;overflow=hidden;rotatable=0;points=[[0,0.5],[1,0.5]];portConstraint=eastwest;whiteSpace=wrap;html=1;" vertex="1" parent="pr3F95v6sbht4BR1zz6e-39">
          <mxGeometry y="26" width="330" height="26" as="geometry" />
        </mxCell>
        <mxCell id="pr3F95v6sbht4BR1zz6e-42" value="" style="line;strokeWidth=1;fillColor=none;align=left;verticalAlign=middle;spacingTop=-1;spacingLeft=3;spacingRight=3;rotatable=0;labelPosition=right;points=[];portConstraint=eastwest;strokeColor=inherit;" vertex="1" parent="pr3F95v6sbht4BR1zz6e-39">
          <mxGeometry y="52" width="330" height="8" as="geometry" />
        </mxCell>
        <mxCell id="pr3F95v6sbht4BR1zz6e-43" value="# setSpecialitiesInternal(Set&amp;lt;Speciality&amp;gt; specialities): void" style="text;strokeColor=none;fillColor=none;align=left;verticalAlign=top;spacingLeft=4;spacingRight=4;overflow=hidden;rotatable=0;points=[[0,0.5],[1,0.5]];portConstraint=eastwest;whiteSpace=wrap;html=1;" vertex="1" parent="pr3F95v6sbht4BR1zz6e-39">
          <mxGeometry y="60" width="330" height="26" as="geometry" />
        </mxCell>
        <mxCell id="pr3F95v6sbht4BR1zz6e-44" value="# getSpecialitiesInternal(): Set&amp;lt;Speciality&amp;gt;" style="text;strokeColor=none;fillColor=none;align=left;verticalAlign=top;spacingLeft=4;spacingRight=4;overflow=hidden;rotatable=0;points=[[0,0.5],[1,0.5]];portConstraint=eastwest;whiteSpace=wrap;html=1;" vertex="1" parent="pr3F95v6sbht4BR1zz6e-39">
          <mxGeometry y="86" width="330" height="26" as="geometry" />
        </mxCell>
        <mxCell id="pr3F95v6sbht4BR1zz6e-45" value="+ getSpecialities(): List&amp;lt;Speciality&amp;gt;" style="text;strokeColor=none;fillColor=none;align=left;verticalAlign=top;spacingLeft=4;spacingRight=4;overflow=hidden;rotatable=0;points=[[0,0.5],[1,0.5]];portConstraint=eastwest;whiteSpace=wrap;html=1;" vertex="1" parent="pr3F95v6sbht4BR1zz6e-39">
          <mxGeometry y="112" width="330" height="26" as="geometry" />
        </mxCell>
        <mxCell id="pr3F95v6sbht4BR1zz6e-46" value="+ getNrOfSpecialities(): int&amp;nbsp;" style="text;strokeColor=none;fillColor=none;align=left;verticalAlign=top;spacingLeft=4;spacingRight=4;overflow=hidden;rotatable=0;points=[[0,0.5],[1,0.5]];portConstraint=eastwest;whiteSpace=wrap;html=1;" vertex="1" parent="pr3F95v6sbht4BR1zz6e-39">
          <mxGeometry y="138" width="330" height="22" as="geometry" />
        </mxCell>
        <mxCell id="pr3F95v6sbht4BR1zz6e-48" value="+ addSpecialities(Speciality speciality): void" style="text;strokeColor=none;fillColor=none;align=left;verticalAlign=top;spacingLeft=4;spacingRight=4;overflow=hidden;rotatable=0;points=[[0,0.5],[1,0.5]];portConstraint=eastwest;whiteSpace=wrap;html=1;" vertex="1" parent="pr3F95v6sbht4BR1zz6e-39">
          <mxGeometry y="160" width="330" height="26" as="geometry" />
        </mxCell>
        <mxCell id="pr3F95v6sbht4BR1zz6e-49" value="" style="endArrow=none;html=1;edgeStyle=orthogonalEdgeStyle;rounded=0;" edge="1" parent="WIyWlLk6GJQsqaUBKTNV-1">
          <mxGeometry relative="1" as="geometry">
            <mxPoint x="-220" y="-870" as="sourcePoint" />
            <mxPoint x="220" y="-870" as="targetPoint" />
          </mxGeometry>
        </mxCell>
        <mxCell id="pr3F95v6sbht4BR1zz6e-52" value="" style="endArrow=none;html=1;edgeStyle=orthogonalEdgeStyle;rounded=0;" edge="1" parent="WIyWlLk6GJQsqaUBKTNV-1">
          <mxGeometry relative="1" as="geometry">
            <mxPoint x="-220" y="-859.01" as="sourcePoint" />
            <mxPoint x="-220" y="-870" as="targetPoint" />
            <Array as="points">
              <mxPoint x="-220" y="-839.01" />
              <mxPoint x="-220" y="-839.01" />
            </Array>
          </mxGeometry>
        </mxCell>
        <mxCell id="pr3F95v6sbht4BR1zz6e-55" value="Vets" style="swimlane;fontStyle=1;align=center;verticalAlign=top;childLayout=stackLayout;horizontal=1;startSize=26;horizontalStack=0;resizeParent=1;resizeParentMax=0;resizeLast=0;collapsible=1;marginBottom=0;whiteSpace=wrap;html=1;" vertex="1" parent="WIyWlLk6GJQsqaUBKTNV-1">
          <mxGeometry x="910" y="-1110" width="240" height="88" as="geometry" />
        </mxCell>
        <mxCell id="pr3F95v6sbht4BR1zz6e-57" value="- vets: List&amp;lt;Vet&amp;gt;" style="text;strokeColor=none;fillColor=none;align=left;verticalAlign=top;spacingLeft=4;spacingRight=4;overflow=hidden;rotatable=0;points=[[0,0.5],[1,0.5]];portConstraint=eastwest;whiteSpace=wrap;html=1;" vertex="1" parent="pr3F95v6sbht4BR1zz6e-55">
          <mxGeometry y="26" width="240" height="28" as="geometry" />
        </mxCell>
        <mxCell id="pr3F95v6sbht4BR1zz6e-58" value="" style="line;strokeWidth=1;fillColor=none;align=left;verticalAlign=middle;spacingTop=-1;spacingLeft=3;spacingRight=3;rotatable=0;labelPosition=right;points=[];portConstraint=eastwest;strokeColor=inherit;" vertex="1" parent="pr3F95v6sbht4BR1zz6e-55">
          <mxGeometry y="54" width="240" height="8" as="geometry" />
        </mxCell>
        <mxCell id="pr3F95v6sbht4BR1zz6e-59" value="+ getVetList(): List&amp;lt;Vet&amp;gt;" style="text;strokeColor=none;fillColor=none;align=left;verticalAlign=top;spacingLeft=4;spacingRight=4;overflow=hidden;rotatable=0;points=[[0,0.5],[1,0.5]];portConstraint=eastwest;whiteSpace=wrap;html=1;" vertex="1" parent="pr3F95v6sbht4BR1zz6e-55">
          <mxGeometry y="62" width="240" height="26" as="geometry" />
        </mxCell>
        <mxCell id="pr3F95v6sbht4BR1zz6e-63" value="Visit" style="swimlane;fontStyle=1;align=center;verticalAlign=top;childLayout=stackLayout;horizontal=1;startSize=26;horizontalStack=0;resizeParent=1;resizeParentMax=0;resizeLast=0;collapsible=1;marginBottom=0;whiteSpace=wrap;html=1;" vertex="1" parent="WIyWlLk6GJQsqaUBKTNV-1">
          <mxGeometry x="910" y="-932" width="240" height="260" as="geometry" />
        </mxCell>
        <mxCell id="pr3F95v6sbht4BR1zz6e-64" value="- date: Date" style="text;strokeColor=none;fillColor=none;align=left;verticalAlign=top;spacingLeft=4;spacingRight=4;overflow=hidden;rotatable=0;points=[[0,0.5],[1,0.5]];portConstraint=eastwest;whiteSpace=wrap;html=1;" vertex="1" parent="pr3F95v6sbht4BR1zz6e-63">
          <mxGeometry y="26" width="240" height="26" as="geometry" />
        </mxCell>
        <mxCell id="pr3F95v6sbht4BR1zz6e-65" value="- description: String" style="text;strokeColor=none;fillColor=none;align=left;verticalAlign=top;spacingLeft=4;spacingRight=4;overflow=hidden;rotatable=0;points=[[0,0.5],[1,0.5]];portConstraint=eastwest;whiteSpace=wrap;html=1;" vertex="1" parent="pr3F95v6sbht4BR1zz6e-63">
          <mxGeometry y="52" width="240" height="28" as="geometry" />
        </mxCell>
        <mxCell id="pr3F95v6sbht4BR1zz6e-71" value="- pet: Pet" style="text;strokeColor=none;fillColor=none;align=left;verticalAlign=top;spacingLeft=4;spacingRight=4;overflow=hidden;rotatable=0;points=[[0,0.5],[1,0.5]];portConstraint=eastwest;whiteSpace=wrap;html=1;" vertex="1" parent="pr3F95v6sbht4BR1zz6e-63">
          <mxGeometry y="80" width="240" height="28" as="geometry" />
        </mxCell>
        <mxCell id="pr3F95v6sbht4BR1zz6e-66" value="" style="line;strokeWidth=1;fillColor=none;align=left;verticalAlign=middle;spacingTop=-1;spacingLeft=3;spacingRight=3;rotatable=0;labelPosition=right;points=[];portConstraint=eastwest;strokeColor=inherit;" vertex="1" parent="pr3F95v6sbht4BR1zz6e-63">
          <mxGeometry y="108" width="240" height="2" as="geometry" />
        </mxCell>
        <mxCell id="pr3F95v6sbht4BR1zz6e-67" value="+ getDate(): Date" style="text;strokeColor=none;fillColor=none;align=left;verticalAlign=top;spacingLeft=4;spacingRight=4;overflow=hidden;rotatable=0;points=[[0,0.5],[1,0.5]];portConstraint=eastwest;whiteSpace=wrap;html=1;" vertex="1" parent="pr3F95v6sbht4BR1zz6e-63">
          <mxGeometry y="110" width="240" height="26" as="geometry" />
        </mxCell>
        <mxCell id="pr3F95v6sbht4BR1zz6e-68" value="+ setDate(Date date): void" style="text;strokeColor=none;fillColor=none;align=left;verticalAlign=top;spacingLeft=4;spacingRight=4;overflow=hidden;rotatable=0;points=[[0,0.5],[1,0.5]];portConstraint=eastwest;whiteSpace=wrap;html=1;" vertex="1" parent="pr3F95v6sbht4BR1zz6e-63">
          <mxGeometry y="136" width="240" height="26" as="geometry" />
        </mxCell>
        <mxCell id="pr3F95v6sbht4BR1zz6e-69" value="+ getDescription: String" style="text;strokeColor=none;fillColor=none;align=left;verticalAlign=top;spacingLeft=4;spacingRight=4;overflow=hidden;rotatable=0;points=[[0,0.5],[1,0.5]];portConstraint=eastwest;whiteSpace=wrap;html=1;" vertex="1" parent="pr3F95v6sbht4BR1zz6e-63">
          <mxGeometry y="162" width="240" height="26" as="geometry" />
        </mxCell>
        <mxCell id="pr3F95v6sbht4BR1zz6e-70" value="+ setDescription(String description): void&amp;nbsp;" style="text;strokeColor=none;fillColor=none;align=left;verticalAlign=top;spacingLeft=4;spacingRight=4;overflow=hidden;rotatable=0;points=[[0,0.5],[1,0.5]];portConstraint=eastwest;whiteSpace=wrap;html=1;" vertex="1" parent="pr3F95v6sbht4BR1zz6e-63">
          <mxGeometry y="188" width="240" height="22" as="geometry" />
        </mxCell>
        <mxCell id="pr3F95v6sbht4BR1zz6e-72" value="+ getPet(): Pet&amp;nbsp;" style="text;strokeColor=none;fillColor=none;align=left;verticalAlign=top;spacingLeft=4;spacingRight=4;overflow=hidden;rotatable=0;points=[[0,0.5],[1,0.5]];portConstraint=eastwest;whiteSpace=wrap;html=1;" vertex="1" parent="pr3F95v6sbht4BR1zz6e-63">
          <mxGeometry y="210" width="240" height="20" as="geometry" />
        </mxCell>
        <mxCell id="pr3F95v6sbht4BR1zz6e-74" value="+ setPet(Pet pet): void&amp;nbsp;" style="text;strokeColor=none;fillColor=none;align=left;verticalAlign=top;spacingLeft=4;spacingRight=4;overflow=hidden;rotatable=0;points=[[0,0.5],[1,0.5]];portConstraint=eastwest;whiteSpace=wrap;html=1;" vertex="1" parent="pr3F95v6sbht4BR1zz6e-63">
          <mxGeometry y="230" width="240" height="30" as="geometry" />
        </mxCell>
        <mxCell id="pr3F95v6sbht4BR1zz6e-75" value="" style="endArrow=none;html=1;edgeStyle=orthogonalEdgeStyle;rounded=0;entryX=0.001;entryY=0.08;entryDx=0;entryDy=0;entryPerimeter=0;" edge="1" parent="WIyWlLk6GJQsqaUBKTNV-1" target="pr3F95v6sbht4BR1zz6e-71">
          <mxGeometry relative="1" as="geometry">
            <mxPoint x="620" y="-850" as="sourcePoint" />
            <mxPoint x="780" y="-850" as="targetPoint" />
          </mxGeometry>
        </mxCell>
        <mxCell id="pr3F95v6sbht4BR1zz6e-79" value="" style="endArrow=none;html=1;edgeStyle=orthogonalEdgeStyle;rounded=0;entryX=0.5;entryY=0;entryDx=0;entryDy=0;" edge="1" parent="WIyWlLk6GJQsqaUBKTNV-1" target="treNw8Xe52a4ep_lziaN-34">
          <mxGeometry relative="1" as="geometry">
            <mxPoint x="620" y="-600" as="sourcePoint" />
            <mxPoint x="780" y="-600" as="targetPoint" />
            <Array as="points">
              <mxPoint x="800" y="-600" />
              <mxPoint x="800" y="-560" />
            </Array>
          </mxGeometry>
        </mxCell>
        <mxCell id="pr3F95v6sbht4BR1zz6e-89" value="" style="endArrow=diamondThin;endFill=1;endSize=24;html=1;rounded=0;entryX=0.074;entryY=1.013;entryDx=0;entryDy=0;entryPerimeter=0;" edge="1" parent="WIyWlLk6GJQsqaUBKTNV-1" target="pr3F95v6sbht4BR1zz6e-74">
          <mxGeometry width="160" relative="1" as="geometry">
            <mxPoint x="860" y="-560" as="sourcePoint" />
            <mxPoint x="950" y="-660" as="targetPoint" />
          </mxGeometry>
        </mxCell>
        <mxCell id="pr3F95v6sbht4BR1zz6e-90" value="" style="endArrow=diamondThin;endFill=1;endSize=24;html=1;rounded=0;entryX=0;entryY=0;entryDx=0;entryDy=0;entryPerimeter=0;" edge="1" parent="WIyWlLk6GJQsqaUBKTNV-1" target="treNw8Xe52a4ep_lziaN-50">
          <mxGeometry width="160" relative="1" as="geometry">
            <mxPoint x="360" y="-240" as="sourcePoint" />
            <mxPoint x="520" y="-240" as="targetPoint" />
          </mxGeometry>
        </mxCell>
        <mxCell id="pr3F95v6sbht4BR1zz6e-91" value="" style="endArrow=diamondThin;endFill=1;endSize=24;html=1;rounded=0;exitX=0.197;exitY=1.1;exitDx=0;exitDy=0;exitPerimeter=0;entryX=0.75;entryY=0;entryDx=0;entryDy=0;" edge="1" parent="WIyWlLk6GJQsqaUBKTNV-1" source="pr3F95v6sbht4BR1zz6e-74" target="treNw8Xe52a4ep_lziaN-34">
          <mxGeometry width="160" relative="1" as="geometry">
            <mxPoint x="970" y="-584" as="sourcePoint" />
            <mxPoint x="1130" y="-584" as="targetPoint" />
          </mxGeometry>
        </mxCell>
        <mxCell id="pr3F95v6sbht4BR1zz6e-92" value="" style="endArrow=diamondThin;endFill=1;endSize=24;html=1;rounded=0;entryX=0;entryY=0.692;entryDx=0;entryDy=0;entryPerimeter=0;" edge="1" parent="WIyWlLk6GJQsqaUBKTNV-1" target="treNw8Xe52a4ep_lziaN-43">
          <mxGeometry width="160" relative="1" as="geometry">
            <mxPoint x="610" y="-490" as="sourcePoint" />
            <mxPoint x="670" y="-490" as="targetPoint" />
          </mxGeometry>
        </mxCell>
        <mxCell id="pr3F95v6sbht4BR1zz6e-93" value="" style="endArrow=none;html=1;edgeStyle=orthogonalEdgeStyle;rounded=0;" edge="1" parent="WIyWlLk6GJQsqaUBKTNV-1">
          <mxGeometry relative="1" as="geometry">
            <mxPoint x="400" y="-490" as="sourcePoint" />
            <mxPoint x="440" y="-490" as="targetPoint" />
          </mxGeometry>
        </mxCell>
        <mxCell id="pr3F95v6sbht4BR1zz6e-96" value="" style="endArrow=none;html=1;edgeStyle=orthogonalEdgeStyle;rounded=0;" edge="1" parent="WIyWlLk6GJQsqaUBKTNV-1">
          <mxGeometry relative="1" as="geometry">
            <mxPoint x="400" y="-360" as="sourcePoint" />
            <mxPoint x="440" y="-360" as="targetPoint" />
          </mxGeometry>
        </mxCell>
        <mxCell id="pr3F95v6sbht4BR1zz6e-97" value="" style="endArrow=none;html=1;edgeStyle=orthogonalEdgeStyle;rounded=0;" edge="1" parent="WIyWlLk6GJQsqaUBKTNV-1">
          <mxGeometry relative="1" as="geometry">
            <mxPoint x="620" y="-600" as="sourcePoint" />
            <mxPoint x="400" y="-360" as="targetPoint" />
          </mxGeometry>
        </mxCell>
      </root>
    </mxGraphModel>
  </diagram>
</mxfile>
